<?xml version="1.0" encoding="UTF-8" standalone="no"?>
<!-- Created with Inkscape (http://www.inkscape.org/) -->

<svg
   width="210mm"
   height="297mm"
   viewBox="0 0 210 297"
   version="1.1"
   id="svg5"
   sodipodi:docname="combined_evidence.svg"
   inkscape:version="1.2.1 (1:1.2.1+202210291244+9c6d41e410)"
   inkscape:export-filename="combined_evidence.pdf"
   inkscape:export-xdpi="96"
   inkscape:export-ydpi="96"
   xmlns:inkscape="http://www.inkscape.org/namespaces/inkscape"
   xmlns:sodipodi="http://sodipodi.sourceforge.net/DTD/sodipodi-0.dtd"
   xmlns="http://www.w3.org/2000/svg"
   xmlns:svg="http://www.w3.org/2000/svg">
  <sodipodi:namedview
     id="namedview7"
     pagecolor="#ffffff"
     bordercolor="#000000"
     borderopacity="0.25"
     inkscape:showpageshadow="2"
     inkscape:pageopacity="0.0"
     inkscape:pagecheckerboard="0"
     inkscape:deskcolor="#d1d1d1"
     inkscape:document-units="mm"
     showgrid="false"
     inkscape:zoom="2.8284271"
     inkscape:cx="189.85817"
     inkscape:cy="114.72807"
     inkscape:window-width="1890"
     inkscape:window-height="1050"
     inkscape:window-x="2575"
     inkscape:window-y="15"
     inkscape:window-maximized="1"
     inkscape:current-layer="layer1" />
  <defs
     id="defs2">
    <marker
       style="overflow:visible"
       id="Arrow2"
       refX="0"
       refY="0"
       orient="auto-start-reverse"
       inkscape:stockid="Arrow2"
       markerWidth="7.6999998"
       markerHeight="5.5999999"
       viewBox="0 0 7.7 5.6"
       inkscape:isstock="true"
       inkscape:collect="always"
       preserveAspectRatio="xMidYMid">
      <path
         transform="scale(0.7)"
         d="M -2,-4 9,0 -2,4 c 2,-2.33 2,-5.66 0,-8 z"
         style="fill:context-stroke;fill-rule:evenodd;stroke:none"
         id="arrow2L" />
    </marker>
    <rect
       x="45.347339"
       y="0.25261587"
       width="27.303893"
       height="18.123939"
       id="rect5929" />
    <rect
       x="58.75548"
       y="8.8093917"
       width="15.357476"
       height="11.406148"
       id="rect5923" />
    <rect
       x="57.799153"
       y="32.169628"
       width="21.829149"
       height="12.140104"
       id="rect5917" />
    <rect
       x="58.890212"
       y="31.798721"
       width="15.648705"
       height="10.619437"
       id="rect5911" />
    <rect
       x="59.206576"
       y="30.438777"
       width="14.41286"
       height="14.46654"
       id="rect5855" />
    <rect
       x="13.867523"
       y="37.383959"
       width="10.468892"
       height="12.694749"
       id="rect5845" />
    <rect
       x="45.34734"
       y="0.25261587"
       width="27.303892"
       height="18.12394"
       id="rect5929-6" />
    <rect
       x="45.34734"
       y="0.25261587"
       width="27.303892"
       height="18.12394"
       id="rect5929-6-8" />
    <rect
       x="45.34734"
       y="0.25261587"
       width="27.303892"
       height="18.12394"
       id="rect5929-6-8-9" />
    <rect
       x="45.34734"
       y="0.25261587"
       width="27.303892"
       height="18.12394"
       id="rect5929-6-8-9-0" />
    <rect
       x="45.34734"
       y="0.25261587"
       width="27.303892"
       height="18.12394"
       id="rect5929-9" />
    <rect
       x="45.34734"
       y="0.25261587"
       width="27.303892"
       height="18.12394"
       id="rect5929-9-2" />
    <rect
       x="45.34734"
       y="0.25261587"
       width="27.303892"
       height="18.12394"
       id="rect5929-9-9" />
    <rect
       x="45.34734"
       y="0.25261587"
       width="27.303892"
       height="18.12394"
       id="rect5929-9-3" />
    <rect
       x="45.34734"
       y="0.25261587"
       width="27.303892"
       height="18.12394"
       id="rect5929-9-1" />
    <rect
       x="45.34734"
       y="0.25261587"
       width="27.303892"
       height="18.12394"
       id="rect5929-9-1-3" />
    <rect
       x="45.34734"
       y="0.25261587"
       width="27.303892"
       height="18.12394"
       id="rect5929-61" />
    <rect
       x="45.34734"
       y="0.25261587"
       width="27.303892"
       height="18.12394"
       id="rect5929-6-3" />
    <rect
       x="45.34734"
       y="0.25261587"
       width="27.303892"
       height="18.12394"
       id="rect5929-6-8-7" />
    <rect
       x="45.34734"
       y="0.25261587"
       width="27.303892"
       height="18.12394"
       id="rect5929-6-8-9-6" />
    <rect
       x="45.34734"
       y="0.25261587"
       width="27.303892"
       height="18.12394"
       id="rect5929-6-8-9-0-4" />
  </defs>
  <g
     inkscape:label="Layer 1"
     inkscape:groupmode="layer"
     id="layer1">
    <rect
       style="fill:#000000;fill-opacity:1;stroke-width:0.264999"
       id="rect5668"
       width="13.996536"
       height="1.1386184"
       x="20.393789"
       y="9.4044838" />
    <rect
       style="font-size:5.33333px;white-space:pre;shape-inside:url(#rect5929);fill:#000000;fill-opacity:1;stroke-width:0.264999"
       id="rect5668-0-6-2-2-9"
       width="13.996536"
       height="1.1386184"
       x="-21.707037"
       y="87.271545"
       transform="rotate(-90.308654)" />
    <rect
       style="font-size:5.33333px;white-space:pre;shape-inside:url(#rect5929);fill:#000000;fill-opacity:1;stroke-width:0.264999"
       id="rect5668-0-6-2-2-9-4-7"
       width="13.996536"
       height="1.1386184"
       x="-83.288094"
       y="62.004017"
       transform="rotate(-121.89963)" />
    <rect
       style="font-size:5.33333px;white-space:pre;shape-inside:url(#rect5929);fill:#000000;fill-opacity:1;stroke-width:0.264999"
       id="rect5668-0-6-2-2-9-4-7-0"
       width="13.996536"
       height="1.1386184"
       x="10.000677"
       y="-87.99736"
       transform="matrix(0.52843284,-0.8489751,-0.8489751,-0.52843284,0,-8.6719079e-8)" />
    <rect
       style="font-size:5.33333px;white-space:pre;shape-inside:url(#rect5929);fill:#000000;fill-opacity:1;stroke-width:0.264999"
       id="rect5668-0-6-2-2-9-4-7-4"
       width="13.996536"
       height="1.1386184"
       x="-74.906418"
       y="47.289753"
       transform="rotate(-133.15693)" />
    <rect
       style="font-size:5.33333px;white-space:pre;shape-inside:url(#rect5929);fill:#000000;fill-opacity:1;stroke-width:0.264999"
       id="rect5668-0-6-2-2-9-4-7-4-3"
       width="13.996536"
       height="1.1386184"
       x="45.53508"
       y="-81.161118"
       transform="matrix(0.68399895,-0.729483,-0.729483,-0.68399893,0,-8.6719079e-8)" />
    <rect
       style="fill:#000000;fill-opacity:1;stroke-width:0.264999"
       id="rect5668-0"
       width="13.996536"
       height="1.1386184"
       x="20.438894"
       y="16.251249" />
    <rect
       style="fill:#000000;fill-opacity:1;stroke-width:0.264999"
       id="rect5668-0-6"
       width="13.996536"
       height="1.1386184"
       x="20.303711"
       y="23.295158" />
    <rect
       style="fill:#000000;fill-opacity:1;stroke-width:0.264999"
       id="rect5668-0-6-2-2"
       width="13.996536"
       height="1.1386184"
       x="20.592518"
       y="37.37159" />
    <rect
       style="fill:#000000;fill-opacity:1;stroke-width:0.264999"
       id="rect5668-0-6-2"
       width="13.996536"
       height="1.1386184"
       x="20.509136"
       y="30.286745" />
    <path
       style="fill:#7ebe91;fill-opacity:1;stroke-width:0.214071"
       id="path3017-5"
       sodipodi:type="arc"
       sodipodi:cx="17.903896"
       sodipodi:cy="16.889301"
       sodipodi:rx="2.9699137"
       sodipodi:ry="3.1955724"
       sodipodi:start="0"
       sodipodi:end="6.2824892"
       sodipodi:arc-type="slice"
       d="m 20.87381,16.889301 a 2.9699137,3.1955724 0 0 1 -2.969397,3.195573 2.9699137,3.1955724 0 0 1 -2.97043,-3.19446 2.9699137,3.1955724 0 0 1 2.968363,-3.196685 2.9699137,3.1955724 0 0 1 2.971463,3.193348 l -2.969913,0.0022 z" />
    <path
       style="fill:#7ebe91;fill-opacity:1;stroke-width:0.214071"
       id="path3017-5-2"
       sodipodi:type="arc"
       sodipodi:cx="17.996954"
       sodipodi:cy="30.776175"
       sodipodi:rx="2.9699137"
       sodipodi:ry="3.1955724"
       sodipodi:start="0"
       sodipodi:end="6.2824892"
       sodipodi:arc-type="slice"
       d="m 20.966868,30.776175 a 2.9699137,3.1955724 0 0 1 -2.969397,3.195572 2.9699137,3.1955724 0 0 1 -2.970431,-3.19446 2.9699137,3.1955724 0 0 1 2.968363,-3.196684 2.9699137,3.1955724 0 0 1 2.971464,3.193347 l -2.969913,0.0022 z" />
    <path
       style="fill:#7ebe91;fill-opacity:1;stroke-width:0.214071"
       id="path3017-5-6"
       sodipodi:type="arc"
       sodipodi:cx="17.911514"
       sodipodi:cy="23.808952"
       sodipodi:rx="2.9699137"
       sodipodi:ry="3.1955724"
       sodipodi:start="0"
       sodipodi:end="6.2824892"
       sodipodi:arc-type="slice"
       d="m 20.881428,23.808952 a 2.9699137,3.1955724 0 0 1 -2.969397,3.195573 2.9699137,3.1955724 0 0 1 -2.97043,-3.19446 2.9699137,3.1955724 0 0 1 2.968363,-3.196685 2.9699137,3.1955724 0 0 1 2.971463,3.193348 l -2.969913,0.0022 z" />
    <path
       style="fill:#7ebe91;fill-opacity:1;stroke-width:0.214071"
       id="path3017-5-2-3"
       sodipodi:type="arc"
       sodipodi:cx="18.080338"
       sodipodi:cy="37.861019"
       sodipodi:rx="2.9699137"
       sodipodi:ry="3.1955724"
       sodipodi:start="0"
       sodipodi:end="6.2824892"
       sodipodi:arc-type="slice"
       d="m 21.050251,37.861019 a 2.9699137,3.1955724 0 0 1 -2.969397,3.195572 2.9699137,3.1955724 0 0 1 -2.97043,-3.19446 2.9699137,3.1955724 0 0 1 2.968363,-3.196684 2.9699137,3.1955724 0 0 1 2.971464,3.193348 l -2.969913,0.0022 z" />
    <path
       style="fill:#7ebe91;fill-opacity:1;stroke-width:0.214071"
       id="path3017-5-5"
       sodipodi:type="arc"
       sodipodi:cx="17.755157"
       sodipodi:cy="10.001221"
       sodipodi:rx="2.9699137"
       sodipodi:ry="3.1955724"
       sodipodi:start="0"
       sodipodi:end="6.2824892"
       sodipodi:arc-type="slice"
       d="m 20.725071,10.001221 a 2.9699137,3.1955724 0 0 1 -2.969397,3.195572 2.9699137,3.1955724 0 0 1 -2.97043,-3.19446 2.9699137,3.1955724 0 0 1 2.968363,-3.1966842 2.9699137,3.1955724 0 0 1 2.971463,3.1933474 l -2.969913,0.00222 z" />
    <path
       style="fill:#7ebe91;fill-opacity:1;stroke-width:0.214071"
       id="path3017-5-0"
       sodipodi:type="arc"
       sodipodi:cx="36.843651"
       sodipodi:cy="16.889652"
       sodipodi:rx="2.9699137"
       sodipodi:ry="3.1955724"
       sodipodi:start="0"
       sodipodi:end="6.2824892"
       sodipodi:arc-type="slice"
       d="m 39.813565,16.889652 a 2.9699137,3.1955724 0 0 1 -2.969397,3.195573 2.9699137,3.1955724 0 0 1 -2.970431,-3.194461 2.9699137,3.1955724 0 0 1 2.968363,-3.196684 2.9699137,3.1955724 0 0 1 2.971464,3.193348 l -2.969913,0.0022 z" />
    <path
       style="fill:#7ebe91;fill-opacity:1;stroke-width:0.214071"
       id="path3017-5-2-9"
       sodipodi:type="arc"
       sodipodi:cx="36.93671"
       sodipodi:cy="30.776525"
       sodipodi:rx="2.9699137"
       sodipodi:ry="3.1955724"
       sodipodi:start="0"
       sodipodi:end="6.2824892"
       sodipodi:arc-type="slice"
       d="m 39.906624,30.776525 a 2.9699137,3.1955724 0 0 1 -2.969397,3.195573 2.9699137,3.1955724 0 0 1 -2.97043,-3.19446 2.9699137,3.1955724 0 0 1 2.968363,-3.196684 2.9699137,3.1955724 0 0 1 2.971463,3.193347 l -2.969913,0.0022 z" />
    <path
       style="fill:#7ebe91;fill-opacity:1;stroke-width:0.214071"
       id="path3017-5-6-3"
       sodipodi:type="arc"
       sodipodi:cx="36.851269"
       sodipodi:cy="23.809301"
       sodipodi:rx="2.9699137"
       sodipodi:ry="3.1955724"
       sodipodi:start="0"
       sodipodi:end="6.2824892"
       sodipodi:arc-type="slice"
       d="m 39.821182,23.809301 a 2.9699137,3.1955724 0 0 1 -2.969396,3.195573 2.9699137,3.1955724 0 0 1 -2.970431,-3.19446 2.9699137,3.1955724 0 0 1 2.968363,-3.196685 2.9699137,3.1955724 0 0 1 2.971464,3.193348 l -2.969913,0.0022 z" />
    <path
       style="fill:#7ebe91;fill-opacity:1;stroke-width:0.214071"
       id="path3017-5-2-9-7"
       sodipodi:type="arc"
       sodipodi:cx="37.000843"
       sodipodi:cy="37.959084"
       sodipodi:rx="2.9699137"
       sodipodi:ry="3.1955724"
       sodipodi:start="0"
       sodipodi:end="6.2824892"
       sodipodi:arc-type="slice"
       d="m 39.970757,37.959084 a 2.9699137,3.1955724 0 0 1 -2.969397,3.195572 2.9699137,3.1955724 0 0 1 -2.97043,-3.19446 2.9699137,3.1955724 0 0 1 2.968363,-3.196684 2.9699137,3.1955724 0 0 1 2.971463,3.193347 l -2.969913,0.0022 z" />
    <path
       style="fill:#7ebe91;fill-opacity:1;stroke-width:0.214071"
       id="path3017-5-2-9-7-9"
       sodipodi:type="arc"
       sodipodi:cx="88.02417"
       sodipodi:cy="23.809572"
       sodipodi:rx="2.9699137"
       sodipodi:ry="3.1955724"
       sodipodi:start="0"
       sodipodi:end="6.2824892"
       sodipodi:arc-type="slice"
       d="m 90.994084,23.809572 a 2.9699137,3.1955724 0 0 1 -2.969397,3.195573 2.9699137,3.1955724 0 0 1 -2.970431,-3.194461 2.9699137,3.1955724 0 0 1 2.968363,-3.196684 2.9699137,3.1955724 0 0 1 2.971464,3.193348 l -2.969913,0.0022 z" />
    <path
       style="fill:#7ebe91;fill-opacity:1;stroke-width:0.214071"
       id="path3017-5-5-6"
       sodipodi:type="arc"
       sodipodi:cx="36.694912"
       sodipodi:cy="10.001573"
       sodipodi:rx="2.9699137"
       sodipodi:ry="3.1955724"
       sodipodi:start="0"
       sodipodi:end="6.2824892"
       sodipodi:arc-type="slice"
       d="m 39.664826,10.001573 a 2.9699137,3.1955724 0 0 1 -2.969397,3.195572 2.9699137,3.1955724 0 0 1 -2.970431,-3.19446 2.9699137,3.1955724 0 0 1 2.968363,-3.1966843 2.9699137,3.1955724 0 0 1 2.971464,3.1933474 l -2.969913,0.00222 z" />
    <text
       xml:space="preserve"
       transform="matrix(0.31371584,0,0,0.32613186,1.1302344,8.8110972)"
       id="text5927"
       style="font-size:5.33333px;white-space:pre;shape-inside:url(#rect5929);display:inline;fill:#000000;fill-opacity:1;stroke-width:1.00157"><tspan
         x="45.347656"
         y="4.9707003"
         id="tspan15314">$A_1$</tspan></text>
    <path
       style="fill:#7ebe91;fill-opacity:1;stroke-width:0.214071"
       id="path3017-5-5-0"
       sodipodi:type="arc"
       sodipodi:cx="87.891693"
       sodipodi:cy="6.3743091"
       sodipodi:rx="2.9699137"
       sodipodi:ry="3.1955724"
       sodipodi:start="0"
       sodipodi:end="6.2824892"
       sodipodi:arc-type="slice"
       d="M 90.861607,6.3743091 A 2.9699137,3.1955724 0 0 1 87.89221,9.5698814 2.9699137,3.1955724 0 0 1 84.92178,6.3754213 2.9699137,3.1955724 0 0 1 87.890143,3.1787371 2.9699137,3.1955724 0 0 1 90.861606,6.3720846 l -2.969913,0.00222 z" />
    <text
       xml:space="preserve"
       transform="matrix(0.31371584,0,0,0.32613186,71.266772,5.184186)"
       id="text5927-6"
       style="font-size:5.33333px;white-space:pre;shape-inside:url(#rect5929-61);display:inline;fill:#000000;fill-opacity:1;stroke-width:1.00157"><tspan
         x="45.347656"
         y="4.9707003"
         id="tspan15316">$A_1$</tspan></text>
    <text
       xml:space="preserve"
       transform="matrix(0.31371584,0,0,0.32613186,20.074736,8.7007204)"
       id="text5927-2"
       style="font-size:5.33333px;white-space:pre;shape-inside:url(#rect5929-9);display:inline;fill:#000000;fill-opacity:1;stroke-width:1.00157"><tspan
         x="45.347656"
         y="4.9707003"
         id="tspan15318">$P_1$</tspan></text>
    <text
       xml:space="preserve"
       transform="matrix(0.31371584,0,0,0.32613186,19.990058,15.754874)"
       id="text5927-2-8"
       style="font-size:5.33333px;white-space:pre;shape-inside:url(#rect5929-9-2);display:inline;fill:#000000;fill-opacity:1;stroke-width:1.00157"><tspan
         x="45.347656"
         y="4.9707003"
         id="tspan15320">$P_1$</tspan></text>
    <text
       xml:space="preserve"
       transform="matrix(0.31371584,0,0,0.32613186,20.009074,22.624724)"
       id="text5927-2-7"
       style="font-size:5.33333px;white-space:pre;shape-inside:url(#rect5929-9-9);display:inline;fill:#000000;fill-opacity:1;stroke-width:1.00157"><tspan
         x="45.347656"
         y="4.9707003"
         id="tspan15322">$P_1$</tspan></text>
    <text
       xml:space="preserve"
       transform="matrix(0.31371584,0,0,0.32613186,20.189856,29.685781)"
       id="text5927-2-6"
       style="font-size:5.33333px;white-space:pre;shape-inside:url(#rect5929-9-3);display:inline;fill:#000000;fill-opacity:1;stroke-width:1.00157"><tspan
         x="45.347656"
         y="4.9707003"
         id="tspan15324">$P_1$</tspan></text>
    <text
       xml:space="preserve"
       transform="matrix(0.31371584,0,0,0.32613186,20.437929,36.840277)"
       id="text5927-2-2"
       style="font-size:5.33333px;white-space:pre;shape-inside:url(#rect5929-9-1);display:inline;fill:#000000;fill-opacity:1;stroke-width:1.00157"><tspan
         x="45.347656"
         y="4.9707003"
         id="tspan15326">$P_1$</tspan></text>
    <text
       xml:space="preserve"
       transform="matrix(0.31371584,0,0,0.32613186,1.1409903,15.660271)"
       id="text5927-1"
       style="font-size:5.33333px;white-space:pre;shape-inside:url(#rect5929-6);display:inline;fill:#000000;fill-opacity:1;stroke-width:1.00157"><tspan
         x="45.347656"
         y="4.9707003"
         id="tspan15328">$A_2$</tspan></text>
    <path
       style="fill:#7ebe91;fill-opacity:1;stroke-width:0.214071"
       id="path3017-5-20"
       sodipodi:type="arc"
       sodipodi:cx="100.61313"
       sodipodi:cy="10.135033"
       sodipodi:rx="2.9699137"
       sodipodi:ry="3.1955724"
       sodipodi:start="0"
       sodipodi:end="6.2824892"
       sodipodi:arc-type="slice"
       d="m 103.58304,10.135033 a 2.9699137,3.1955724 0 0 1 -2.96939,3.195572 2.9699137,3.1955724 0 0 1 -2.970435,-3.19446 2.9699137,3.1955724 0 0 1 2.968365,-3.1966843 2.9699137,3.1955724 0 0 1 2.97146,3.1933473 l -2.96991,0.0022 z" />
    <text
       xml:space="preserve"
       transform="matrix(0.31371584,0,0,0.32613186,83.850223,8.9060025)"
       id="text5927-1-6"
       style="font-size:5.33333px;white-space:pre;shape-inside:url(#rect5929-6-3);display:inline;fill:#000000;fill-opacity:1;stroke-width:1.00157"><tspan
         x="45.347656"
         y="4.9707003"
         id="tspan15330">$A_2$</tspan></text>
    <text
       xml:space="preserve"
       transform="matrix(0.31371584,0,0,0.32613186,1.103647,22.730389)"
       id="text5927-1-7"
       style="font-size:5.33333px;white-space:pre;shape-inside:url(#rect5929-6-8);display:inline;fill:#000000;fill-opacity:1;stroke-width:1.00157"><tspan
         x="45.347656"
         y="4.9707003"
         id="tspan15332">$A_3$</tspan></text>
    <path
       style="fill:#7ebe91;fill-opacity:1;stroke-width:0.214071"
       id="path3017-5-6-6"
       sodipodi:type="arc"
       sodipodi:cx="97.617165"
       sodipodi:cy="37.960571"
       sodipodi:rx="2.9699137"
       sodipodi:ry="3.1955724"
       sodipodi:start="0"
       sodipodi:end="6.2824892"
       sodipodi:arc-type="slice"
       d="m 100.58708,37.960571 a 2.9699137,3.1955724 0 0 1 -2.969399,3.195573 2.9699137,3.1955724 0 0 1 -2.97043,-3.19446 2.9699137,3.1955724 0 0 1 2.968363,-3.196685 2.9699137,3.1955724 0 0 1 2.971466,3.193348 l -2.969915,0.0022 z" />
    <text
       xml:space="preserve"
       transform="matrix(0.31371584,0,0,0.32613186,80.809294,36.88201)"
       id="text5927-1-7-5"
       style="font-size:5.33333px;white-space:pre;shape-inside:url(#rect5929-6-8-7);display:inline;fill:#000000;fill-opacity:1;stroke-width:1.00157"><tspan
         x="45.347656"
         y="4.9707003"
         id="tspan15334">$A_3$</tspan></text>
    <text
       xml:space="preserve"
       transform="matrix(0.31371584,0,0,0.32613186,1.0764324,29.543533)"
       id="text5927-1-7-2"
       style="font-size:5.33333px;white-space:pre;shape-inside:url(#rect5929-6-8-9);display:inline;fill:#000000;fill-opacity:1;stroke-width:1.00157"><tspan
         x="45.347656"
         y="4.9707003"
         id="tspan15336">$A_4$</tspan></text>
    <path
       style="fill:#7ebe91;fill-opacity:1;stroke-width:0.214071"
       id="path3017-5-2-93"
       sodipodi:type="arc"
       sodipodi:cx="79.972664"
       sodipodi:cy="37.959572"
       sodipodi:rx="2.9699137"
       sodipodi:ry="3.1955724"
       sodipodi:start="0"
       sodipodi:end="6.2824892"
       sodipodi:arc-type="slice"
       d="m 82.942578,37.959572 a 2.9699137,3.1955724 0 0 1 -2.969397,3.195572 2.9699137,3.1955724 0 0 1 -2.970431,-3.19446 2.9699137,3.1955724 0 0 1 2.968363,-3.196684 2.9699137,3.1955724 0 0 1 2.971464,3.193347 l -2.969913,0.0022 z" />
    <text
       xml:space="preserve"
       transform="matrix(0.31371584,0,0,0.32613186,63.052148,36.881409)"
       id="text5927-1-7-2-7"
       style="font-size:5.33333px;white-space:pre;shape-inside:url(#rect5929-6-8-9-6);display:inline;fill:#000000;fill-opacity:1;stroke-width:1.00157"><tspan
         x="45.347656"
         y="4.9707003"
         id="tspan15338">$A_4$</tspan></text>
    <text
       xml:space="preserve"
       transform="matrix(0.31371584,0,0,0.32613186,1.1598144,36.628379)"
       id="text5927-1-7-2-5"
       style="font-size:5.33333px;white-space:pre;shape-inside:url(#rect5929-6-8-9-0);display:inline;fill:#000000;fill-opacity:1;stroke-width:1.00157"><tspan
         x="45.347656"
         y="4.9707003"
         id="tspan15340">$A_5$</tspan></text>
    <path
       style="fill:#7ebe91;fill-opacity:1;stroke-width:0.214071"
       id="path3017-5-2-3-5"
       sodipodi:type="arc"
       sodipodi:cx="75.435287"
       sodipodi:cy="10.134572"
       sodipodi:rx="2.9699137"
       sodipodi:ry="3.1955724"
       sodipodi:start="0"
       sodipodi:end="6.2824892"
       sodipodi:arc-type="slice"
       d="m 78.405201,10.134572 a 2.9699137,3.1955724 0 0 1 -2.969397,3.195572 2.9699137,3.1955724 0 0 1 -2.97043,-3.19446 2.9699137,3.1955724 0 0 1 2.968363,-3.1966839 2.9699137,3.1955724 0 0 1 2.971463,3.1933479 l -2.969913,0.0022 z" />
    <text
       xml:space="preserve"
       transform="matrix(0.31371584,0,0,0.32613186,58.514767,8.9064089)"
       id="text5927-1-7-2-5-2"
       style="font-size:5.33333px;white-space:pre;shape-inside:url(#rect5929-6-8-9-0-4);display:inline;fill:#000000;fill-opacity:1;stroke-width:1.00157"><tspan
         x="45.347656"
         y="4.9707003"
         id="tspan15342">$A_5$</tspan></text>
    <text
       xml:space="preserve"
       transform="matrix(0.31371584,0,0,0.32613186,72.291204,22.624409)"
       id="text5927-2-2-1"
       style="font-size:5.33333px;white-space:pre;shape-inside:url(#rect5929-9-1-3);display:inline;fill:#000000;fill-opacity:1;stroke-width:1.00157"><tspan
         x="45.347656"
         y="4.9707003"
         id="tspan15344">$P$</tspan></text>
    <path
       style="fill:#000000;fill-opacity:1;stroke:#000000;stroke-width:0.50577;stroke-dasharray:none;stroke-opacity:1;marker-end:url(#Arrow2)"
       d="m 50.745939,23.991683 17.572946,-0.04173"
       id="path14789" />
  </g>
</svg>
